<svg xmlns="http://www.w3.org/2000/svg" width="128pt" height="128pt" viewBox="0 0 128 128"><rect width="128" height="128" fill="#65fff5" rx="0" ry="64"/><g fill="#ff6766"><rect width="7.2" height="59.17" x="24.13" y="23.4" rx="0" ry="59.17"/><rect width="7.2" height="59.17" x="61.4" y="-63.2" rx="0" ry="59.17" transform="rotate(69.6)"/><rect width="7.2" height="59.5" x="76.4" y="20.3" rx="0" ry="59.5"/></g><g fill="#5956ff"><rect width="7.08" height="59.19" x="78.15" y="-83.85" rx="0" ry="59.2" transform="matrix(.35838 .93358 -.93626 .3513 0 0)"/><rect width="6.94" height="56.86" x="119.94" y="-65.6" rx="0" ry="56.9" transform="matrix(.3424 .93955 -.9361 .35172 0 0)"/><rect width="7.08" height="59.19" x="28.7" y="-139.4" rx="0" ry="59.2" transform="matrix(-.46586 .88486 -.8813 -.47254 0 0)"/></g></svg>
